<svg id="SvgjsSvg1001" width="288" height="288" xmlns="http://www.w3.org/2000/svg" version="1.1" xmlns:xlink="http://www.w3.org/1999/xlink" xmlns:svgjs="http://svgjs.com/svgjs"><rect id="SvgjsRect1011" width="288" height="288" rx="20" ry="20" transform="matrix(0.7916,0,0,0.7916,30.009600000000006,30.009600000000006)" fill="#e4e6e7"></rect><defs id="SvgjsDefs1002"></defs><g id="SvgjsG1008" transform="matrix(0.4652,0,0,0.4652,77.0112,77.01119132957459)"><svg xmlns="http://www.w3.org/2000/svg" viewBox="0 0 1792 1792" width="288" height="288"><path d="M553.467 896q-151.2 4.667-247.334 119.467H181.067q-76.534 0-128.8-37.8Q0 939.867 0 867.067 0 537.6 115.733 537.6q5.6 0 40.6 19.6t91 39.667q56 20.066 111.067 20.066 62.533 0 124.133-21.466-4.666 34.533-4.666 61.6 0 129.733 75.6 238.933zm999.6 594.533q0 112-68.134 176.867-68.133 64.867-181.066 64.867H488.133q-112.933 0-181.066-64.867-68.134-64.867-68.134-176.867 0-49.466 3.267-96.6 3.267-47.133 13.067-101.733T280 1190.933q14.933-46.666 40.133-91 25.2-44.333 57.867-75.6 32.667-31.266 79.8-49.933 47.133-18.667 104.067-18.667 9.333 0 40.133 20.067 30.8 20.067 68.133 44.8 37.334 24.733 99.867 44.8 62.533 20.067 126 20.067t126-20.067q62.533-20.067 99.867-44.8 37.333-24.733 68.133-44.8 30.8-20.067 40.133-20.067 56.934 0 104.067 18.667 47.133 18.667 79.8 49.933 32.667 31.267 57.867 75.6 25.2 44.334 40.133 91 14.933 46.667 24.733 101.267 9.8 54.6 13.067 101.733 3.267 47.134 3.267 96.6zM597.333 298.667q0 98.933-70 168.933-70 70-168.933 70-98.933 0-168.933-70-70-70-70-168.933 0-98.934 70-168.934t168.933-70q98.933 0 168.933 70 70 70 70 168.934zm657.067 358.4q0 148.4-105 253.4t-253.4 105q-148.4 0-253.4-105t-105-253.4q0-148.4 105-253.4t253.4-105q148.4 0 253.4 105t105 253.4zm537.6 210q0 72.8-52.267 110.6-52.266 37.8-128.8 37.8h-125.066q-96.134-114.8-247.334-119.467 75.6-109.2 75.6-238.933 0-27.067-4.666-61.6 61.6 21.466 124.133 21.466 55.067 0 111.067-20.066 56-20.067 91-39.667t40.6-19.6Q1792 537.6 1792 867.067Zm-119.467-568.4q0 98.933-70 168.933-70 70-168.933 70-98.933 0-168.933-70-70-70-70-168.933 0-98.934 70-168.934t168.933-70q98.933 0 168.933 70 70 70 70 168.934z" fill="#aeb4b7" class="svgShape color000000-0 selectable"></path></svg></g></svg>