<?xml version="1.0" encoding="UTF-8" standalone="no"?>
<svg
   id="SvgjsSvg1001"
   width="288"
   height="288"
   version="1.1"
   sodipodi:docname="group.svg"
   inkscape:version="1.4.2 (f4327f4, 2025-05-13)"
   xmlns:inkscape="http://www.inkscape.org/namespaces/inkscape"
   xmlns:sodipodi="http://sodipodi.sourceforge.net/DTD/sodipodi-0.dtd"
   xmlns="http://www.w3.org/2000/svg"
   xmlns:svg="http://www.w3.org/2000/svg">
  <sodipodi:namedview
     id="namedview1"
     pagecolor="#ffffff"
     bordercolor="#000000"
     borderopacity="0.25"
     inkscape:showpageshadow="2"
     inkscape:pageopacity="0.0"
     inkscape:pagecheckerboard="0"
     inkscape:deskcolor="#d1d1d1"
     inkscape:zoom="1.4890982"
     inkscape:cx="-89.987352"
     inkscape:cy="172.92346"
     inkscape:window-width="2560"
     inkscape:window-height="1494"
     inkscape:window-x="-11"
     inkscape:window-y="-11"
     inkscape:window-maximized="1"
     inkscape:current-layer="SvgjsG1008" />
  <defs
     id="SvgjsDefs1002" />
  <g
     id="SvgjsG1008"
     transform="matrix(0.4710297,0,0,0.47286568,66.564374,63.732193)"
     style="opacity:1">
    <rect
       style="opacity:1;display:inline;fill:#e4e6e7;stroke-width:1;stroke-dasharray:none;fill-opacity:1;fill-rule:nonzero"
       id="rect3"
       width="362.63559"
       height="361.29251"
       x="-38.949749"
       y="-32.234276"
       transform="matrix(2.1230084,0,0,2.1147654,-141.31672,-134.77864)" />
    <path
       d="m 60.921361,205.14789 q -45.854145,1.41535 -75.008524,36.23052 h -37.928536 q -23.210324,0 -39.06094,-11.46352 -15.850911,-11.46356 -15.850911,-33.54147 0,-99.916852 35.09813,-99.916852 1.698302,0 12.312688,5.944052 10.614384,5.94406 27.597399,12.02974 16.98302,6.08538 33.6830854,6.08538 18.9642666,0 37.6455846,-6.50995 -1.415047,10.47276 -1.415047,18.68131 0,39.34389 22.927071,72.46079 z M 364.0682,385.45081 q 0,33.96603 -20.66285,53.63812 -20.66257,19.6721 -54.91156,19.6721 H 41.107639 q -34.2489804,0 -54.91155,-19.6721 -20.662873,-19.67209 -20.662873,-53.63812 0,-15.00147 0.990776,-29.29572 0.990778,-14.29393 3.962804,-30.85237 2.97203,-16.55842 7.500732,-30.71105 4.528706,-14.15232 12.1710623,-27.59739 7.6423577,-13.44481 17.5492202,-22.9271 9.9068595,-9.48196 24.2007965,-15.14308 14.29394,-5.66111 31.560208,-5.66111 2.830403,0 12.171061,6.08569 9.340661,6.08567 20.66257,13.58641 11.322214,7.50073 30.286494,13.5864 18.96425,6.08569 38.21177,6.08569 19.24754,0 38.21179,-6.08569 18.96427,-6.08567 30.28648,-13.5864 11.3219,-7.50074 20.66257,-13.58641 9.34065,-6.08569 12.17107,-6.08569 17.26626,0 31.5602,5.66111 14.29393,5.66112 24.20081,15.14308 9.90686,9.48229 17.54921,22.9271 7.64235,13.44507 12.17105,27.59739 4.52871,14.15263 7.50075,30.71105 2.97202,16.55844 3.96278,30.85237 0.99078,14.29425 0.99078,29.29572 z M 74.224523,23.995792 q 0,30.00323 -21.22877,51.232002 -21.228772,21.228774 -51.2320006,21.228774 -30.0032274,0 -51.2319984,-21.228774 -21.22877,-21.228772 -21.22877,-51.232002 0,-30.0035306 21.22877,-51.232302 21.228771,-21.22877 51.2319984,-21.22877 30.0032286,0 51.2320006,21.22877 21.22877,21.2287714 21.22877,51.232302 z M 273.49202,132.6871 q 0,45.005 -31.84316,76.84816 -31.84316,31.84315 -76.84815,31.84315 -45.005,0 -76.848147,-31.84315 -31.843157,-31.84316 -31.843157,-76.84816 0,-45.004992 31.843157,-76.848148 31.843147,-31.84316 76.848147,-31.84316 45.00499,0 76.84815,31.84316 31.84316,31.843156 31.84316,76.848148 z m 163.03697,63.68632 q 0,22.07791 -15.85093,33.54147 -15.85059,11.46352 -39.06092,11.46352 h -37.92853 q -29.15439,-34.81517 -75.00856,-36.23052 22.9271,-33.1169 22.9271,-72.46079 0,-8.20855 -1.41506,-18.68131 18.6813,6.50995 37.64559,6.50995 16.70006,0 33.68309,-6.08538 16.98302,-6.08568 27.59739,-12.02974 10.61438,-5.944052 12.31269,-5.944052 35.09814,0 35.09814,99.916852 z M 400.29844,23.995792 q 0,30.00323 -21.22876,51.232002 -21.22878,21.228774 -51.232,21.228774 -30.00322,0 -51.232,-21.228774 -21.22878,-21.228772 -21.22878,-51.232002 0,-30.0035306 21.22878,-51.232302 21.22878,-21.22877 51.232,-21.22877 30.00322,0 51.232,21.22877 21.22876,21.2287714 21.22876,51.232302 z"
       fill="#aeb4b7"
       class="svgShape color000000-0 selectable"
       id="path1"
       style="display:inline;opacity:1;stroke-width:0.303268" />
  </g>
</svg>
