<svg xmlns="http://www.w3.org/2000/svg" xmlns:xlink="http://www.w3.org/1999/xlink" version="1.1" width="256" height="256" viewBox="0 0 256 256" xml:space="preserve">
<g style="stroke: none; stroke-width: 0; stroke-dasharray: none; stroke-linecap: butt; stroke-linejoin: miter; stroke-miterlimit: 10; fill: none; fill-rule: nonzero; opacity: 1;" transform="translate(1.4065934065934016 1.4065934065934016) scale(2.81 2.81)">
	<path d="M 85.414 78.2 H 4.586 C 2.053 78.2 0 76.147 0 73.614 V 16.386 C 0 13.853 2.053 11.8 4.586 11.8 h 80.828 c 2.533 0 4.586 2.053 4.586 4.586 v 57.228 C 90 76.147 87.947 78.2 85.414 78.2 z" style="stroke: none; stroke-width: 1; stroke-dasharray: none; stroke-linecap: butt; stroke-linejoin: miter; stroke-miterlimit: 10; fill: rgb(71,54,198); fill-rule: nonzero; opacity: 1;" transform=" matrix(1 0 0 1 0 0) " stroke-linecap="round"/>
	<path d="M 85.385 69.048 c 0 2.273 -1.843 4.116 -4.116 4.116 H 8.731 c -2.273 0 -4.116 -1.843 -4.116 -4.116 l 15.26 -18.195 c 2.753 -3.282 7.745 -3.448 10.71 -0.355 l 0.963 1.005 c 2.991 3.12 8.038 2.919 10.771 -0.43 l 7.714 -9.451 c 2.809 -3.441 8.034 -3.542 10.973 -0.21 L 85.385 69.048 z" style="stroke: none; stroke-width: 1; stroke-dasharray: none; stroke-linecap: butt; stroke-linejoin: miter; stroke-miterlimit: 10; fill: rgb(131,229,90); fill-rule: nonzero; opacity: 1;" transform=" matrix(1 0 0 1 0 0) " stroke-linecap="round"/>
	<circle cx="36.471000000000004" cy="33.021" r="7.101" style="stroke: none; stroke-width: 1; stroke-dasharray: none; stroke-linecap: butt; stroke-linejoin: miter; stroke-miterlimit: 10; fill: rgb(255,201,82); fill-rule: nonzero; opacity: 1;" transform="  matrix(1 0 0 1 0 0) "/>
</g>
</svg>