<?xml version="1.0" encoding="UTF-8" standalone="no"?>
<!-- Created with Inkscape (http://www.inkscape.org/) -->

<svg
   version="1.1"
   id="svg1"
   width="4000"
   height="1346.6667"
   viewBox="0 0 4000 1346.6667"
   sodipodi:docname="logo.png"
   inkscape:version="1.4.2 (f4327f4, 2025-05-13)"
   inkscape:dataloss="true"
   inkscape:export-filename="logo.svg"
   inkscape:export-xdpi="96"
   inkscape:export-ydpi="96"
   xmlns:inkscape="http://www.inkscape.org/namespaces/inkscape"
   xmlns:sodipodi="http://sodipodi.sourceforge.net/DTD/sodipodi-0.dtd"
   xmlns="http://www.w3.org/2000/svg"
   xmlns:svg="http://www.w3.org/2000/svg">
  <defs
     id="defs1" />
  <sodipodi:namedview
     id="namedview1"
     pagecolor="#ffffff"
     bordercolor="#000000"
     borderopacity="0.25"
     inkscape:showpageshadow="2"
     inkscape:pageopacity="0.0"
     inkscape:pagecheckerboard="0"
     inkscape:deskcolor="#d1d1d1"
     inkscape:zoom="0.30675"
     inkscape:cx="2611.2469"
     inkscape:cy="1038.3048"
     inkscape:window-width="2560"
     inkscape:window-height="1494"
     inkscape:window-x="-11"
     inkscape:window-y="-11"
     inkscape:window-maximized="1"
     inkscape:current-layer="g1">
    <inkscape:page
       x="0"
       y="0"
       width="4000"
       height="1346.6667"
       id="page2"
       margin="0"
       bleed="0" />
  </sodipodi:namedview>
  <g
     inkscape:groupmode="layer"
     inkscape:label="Image"
     id="g1">
    <path
       style="fill:#000080"
       d="M 0,673.31061 V 0 h 972 972 l 0.078,300.33335 c 0.043,165.18334 0.2209,438.03336 0.3951,606.33337 0.1742,168.29998 0.128,336.12278 -0.1026,372.93958 l -0.4193,66.9395 -971.97576,0.038 L 0,1346.6212 Z m 846,638.76689 c 81.69288,-9.726 137.70995,-38.9748 183.6924,-95.9135 11.9641,-14.8148 29.5988,-46.8047 38.7549,-70.3028 10.9588,-28.1242 20.789,-67.2822 28.0817,-111.8611 7.0899,-43.33937 13.2598,-107.37773 14.9016,-154.66671 0.5092,-14.66667 1.0998,-27.56667 1.3123,-28.66667 0.2125,-1.1 0.4323,-6.46926 0.4884,-11.93169 l 0.102,-9.9317 6.8176,13.26503 c 19.2235,37.4033 57.9534,93.66395 119.7349,173.93174 32.9247,42.7764 44.2152,56.0123 68.7809,80.6321 38.5721,38.6571 70.8863,63.0272 110.4026,83.2616 46.5136,23.8173 87.6403,34.3934 138.9307,35.7273 83.1813,2.1632 147.7205,-23.063 205.4097,-80.2877 17.9199,-17.7756 26.8368,-28.5681 40.4264,-48.9294 33.7792,-50.6117 50.8792,-113.35968 50.7987,-186.40395 -0.085,-77.10471 -20.4231,-156.63928 -59.9997,-234.63686 -20.9107,-41.21068 -48.5478,-84.55546 -76.9079,-120.61873 -4.58,-5.8239 -8.1922,-10.70502 -8.0272,-10.84693 0.165,-0.14192 9,-3.70105 19.6333,-7.90919 43.1357,-17.07093 70.4695,-33.61647 108.0844,-65.42494 10.6553,-9.01056 31.012,-30.09662 33.8293,-35.0414 0.6858,-1.20375 2.0568,-3.0025 3.0466,-3.99721 3.0308,-3.04569 15.7351,-23.08147 21.3224,-33.62705 5.3605,-10.1176 14.8994,-33.50024 17.636,-43.23105 5.2689,-18.73525 6.748,-30.67766 6.748,-54.48275 0,-41.76228 -7.9336,-70.80555 -29.7343,-108.8506 -12.5702,-21.93651 -19.6554,-30.9252 -41.5801,-52.7502 -49.0827,-48.859596 -116.7496,-83.332647 -193.3523,-98.503858 -46.3595,-9.181527 -61.1293,-10.549254 -104,-9.63069 -33.7355,0.722833 -41.7209,1.310081 -65.3333,4.804671 -34.8837,5.162719 -75.5479,16.423551 -108.6667,30.09229 -9.109,3.759485 -36.3313,17.165397 -43.5891,21.466013 -17.8849,10.597568 -23.3093,14.171128 -35.9948,23.712874 -24.0759,18.10932 -48.495,43.62212 -66.4973,69.47557 -7.9256,11.38203 -24.5854,44.02291 -24.5854,48.16909 0,1.65378 -0.6,3.37769 -1.3334,3.83091 -0.7333,0.45323 -1.3333,1.99678 -1.3333,3.43012 0,1.43334 -0.5619,3.64793 -1.2487,4.92131 -1.2094,2.24228 -3.8007,13.95078 -6.6848,30.20428 -1.7559,9.89575 -1.8353,50.81453 -0.1134,58.42516 0.7076,3.1272 2.305,10.48581 3.5499,16.35247 3.6413,17.15993 13.1113,42.20255 20.5001,54.21095 2.1983,3.57268 3.9969,6.83509 3.9969,7.2498 0,1.29069 9.5145,15.38042 17.9214,26.53926 14.0744,18.68158 42.721,45.84603 64.0786,60.76327 12.4444,8.69183 33.2773,20.91342 49.5853,29.08911 8.9385,4.48119 16.5495,8.14762 16.9132,8.14762 0.3637,0 2.3503,0.70276 4.4147,1.56168 2.0644,0.85892 10.3233,4.0442 18.353,7.07839 l 14.5995,5.51672 1.5552,5.92161 c 0.8554,3.25688 3.7032,14.02161 6.3284,23.92161 16.0516,60.53154 24.0552,95.52338 30.1921,132.00001 18.895,112.30926 14.804,185.96587 -12.0217,216.44142 -20.1891,22.93606 -59.2158,19.29813 -97.3196,-9.07177 -30.9369,-23.03387 -61.1364,-62.22917 -96.5957,-125.36965 -20.6899,-36.84141 -42.0415,-83.95039 -58.5876,-129.26467 -20.2612,-55.48829 -29.5901,-89.35718 -46.1094,-167.40201 -5.7578,-27.20221 -6.7879,-38.75664 -5.3361,-59.8549 3.2656,-47.46021 9.8847,-102.18433 16.0394,-132.60736 3.4965,-17.28378 3.4912,-17.3684 -1.0107,-16.24615 -2.0167,0.50272 -5.4667,1.74047 -7.6667,2.75057 -9.8522,4.52349 -23.8295,9.39126 -38,13.23394 -1.8333,0.49715 -5.4333,1.51815 -8,2.26888 -6.4965,1.90019 -25.7972,5.21339 -35.0944,6.02438 l -7.7612,0.67701 0.8652,11.54347 c 1.2006,16.01804 1.2156,144.14251 0.019,162.87682 -0.5386,8.43334 -1.4382,15.93334 -1.9991,16.66667 -0.5609,0.73333 -1.4443,9.42888 -1.9632,19.32343 -0.5188,9.89456 -1.4317,18.59456 -2.0285,19.33334 -0.5968,0.73878 -1.4142,4.04323 -1.8164,7.34323 -0.6945,5.69669 -2.8371,17.55597 -4.2157,23.33334 -0.35,1.46666 -0.9896,4.46666 -1.4215,6.66666 -0.4318,2.2 -1.2702,5.2 -1.8632,6.66667 -0.5929,1.46667 -2.1863,6.26667 -3.541,10.66667 -2.8097,9.12635 -7.5855,18.61146 -11.5806,23 -4.097,4.50061 -12.6478,4.16848 -17.2846,-0.67138 -5.59378,-5.83862 -10.74448,-18.38044 -17.10984,-41.66196 -1.35928,-4.97163 -3.59302,-18.1201 -4.75681,-28 -0.38871,-3.3 -1.24858,-6.57 -1.91082,-7.26666 -0.66223,-0.69667 -1.20406,-4.41844 -1.20406,-8.2706 0,-3.85216 -0.58827,-8.38216 -1.30726,-10.06667 -2.70853,-6.34575 -4.34209,-50.70334 -4.36017,-118.39608 -0.0103,-38.5 0.42002,-74.52665 0.95625,-80.05922 0.96739,-9.9811 0.94756,-10.07171 -2.553,-11.66667 -1.94038,-0.88409 -6.76432,-1.60745 -10.71987,-1.60745 -3.95555,0 -7.50799,-0.51143 -7.89431,-1.13651 -0.38633,-0.62509 -4.47174,-1.491 -9.07869,-1.92425 -7.87357,-0.74046 -12.62827,-1.81635 -31.37629,-7.09981 -4.21666,-1.18832 -9.02553,-2.45996 -10.68637,-2.82587 -1.66083,-0.36591 -3.34624,-1.19365 -3.74535,-1.83943 -0.39911,-0.64577 -1.68625,-1.17413 -2.86031,-1.17413 -1.17406,0 -9.53917,-3.6 -18.58915,-8 -9.04997,-4.4 -16.82074,-8 -17.26838,-8 -0.44763,0 -0.46365,1.95 -0.0356,4.33334 1.11365,6.20052 4.45975,42.93923 6.46655,71 2.26679,31.6963 2.28453,162.8463 0.0277,204.66668 -5.16296,95.67161 -17.22386,200.74542 -31.68067,276.00002 -1.90184,9.9 -3.95574,20.7 -4.56422,24 -2.57061,13.94137 -6.9088,35.71798 -8.10134,40.66667 -0.70688,2.93333 -4.57724,19.49169 -8.6008,36.79636 -14.82745,63.77039 -31.71078,114.53805 -49.99718,150.33985 -16.735,32.7645 -33.40547,52.4835 -52.58151,62.1971 -9.52789,4.8264 -11.662,5.3781 -22.45072,5.8041 -12.88719,0.5089 -19.94326,-0.8717 -31.66598,-6.196 -25.95403,-11.788 -53.97923,-44.1563 -73.42085,-84.799 -31.41104,-65.6649 -38.87139,-144.45274 -23.87513,-252.14242 2.65171,-19.04217 3.19546,-22.34408 7.90452,-48 4.13032,-22.50285 16.33836,-73.328 23.234,-96.72903 7.96633,-27.03453 21.59385,-69.02527 28.3226,-87.27098 15.78755,-42.80964 38.30927,-98.42143 47.96049,-118.42653 1.72164,-3.56864 5.66258,-7.33209 13.16576,-12.57282 25.66408,-17.92555 44.90099,-36.81645 58.72356,-57.66733 2.18765,-3.3 4.36793,-6.3 4.84507,-6.66667 1.51058,-1.16084 15.80665,-29.73354 15.80665,-31.59181 0,-0.97774 0.52999,-2.81957 1.17777,-4.09295 6.58531,-12.94527 8.58707,-27.74222 7.81437,-57.76338 -0.41039,-15.94448 -1.31744,-27.67734 -2.36192,-30.55187 -2.90707,-8.00054 -3.52959,-9.78991 -6.03028,-17.33333 -3.01398,-9.0918 -11.87558,-26.03795 -19.95657,-38.16321 -14.44977,-21.6814 -45.6866,-50.76239 -71.97671,-67.00915 -17.12139,-10.58068 -43.69357,-25.49067 -45.4499,-25.502528 -0.66922,-0.0045 -2.80646,-0.837653 -4.74943,-1.851411 -5.29656,-2.763518 -23.91551,-9.802459 -37.64178,-14.230567 -16.58912,-5.35167 -18.69398,-5.950246 -30.15889,-8.576554 -5.5,-1.259904 -11.04186,-2.825302 -12.31524,-3.478662 -1.27338,-0.65336 -4.09515,-1.187927 -6.27059,-1.187927 -2.17545,0 -5.33359,-0.537784 -7.0181,-1.195074 C 520.77288,68.317965 508.32211,66.356945 476,61.954124 429.39143,55.605243 367.1584,59.440513 322.66667,71.403685 315.7,73.276919 304.6,76.247024 298,78.003918 c -43.21998,11.50499 -90.31215,33.156712 -121.33333,55.785832 -10.85947,7.92169 -33.51238,27.26177 -37.21489,31.77247 -1.40153,1.70745 -5.34943,6.40446 -8.77311,10.43779 -19.8026,23.3288 -33.112719,50.13388 -39.393118,79.33334 -3.396634,15.79197 -2.150263,48.53163 2.512565,66 12.113023,45.37906 40.654503,82.80835 90.201883,118.2907 13.30058,9.52494 18.37371,12.54036 37.82654,22.48371 24.59634,12.57248 56.19507,24.46046 77.84013,29.2848 5.31666,1.185 9.66666,2.37641 9.66666,2.64757 0,0.27117 -4.40363,7.27308 -9.78584,15.5598 -74.1557,114.17378 -117.30923,219.19209 -131.10913,319.06679 -3.39154,24.54577 -3.34477,86.6903 0.0818,108.66667 8.78429,56.3385 28.25812,104.44731 59.36876,146.66671 54.43063,73.8662 140.78812,130.3108 264.02059,172.568 78.64518,26.9679 182.21446,49.6601 252.75717,55.3794 9.53333,0.7729 19.73333,1.641 22.66666,1.9291 9.70347,0.953 66.45139,-0.3448 78.66667,-1.7991 z M 437.09713,413.65967 c -1.96325,-1.27947 -7.36325,-4.97928 -12,-8.2218 -4.63676,-3.24252 -14.13046,-9.80971 -21.09713,-14.59376 -6.96667,-4.78405 -20.16667,-13.85813 -29.33333,-20.16461 -9.16667,-6.30649 -26.97983,-18.53343 -39.58479,-27.17097 -12.60497,-8.63755 -23.64318,-16.57827 -24.52937,-17.64606 -2.78881,-3.36032 0.47973,-7.47456 12.27442,-15.45029 6.14519,-4.15546 17.47307,-11.89469 25.17307,-17.1983 26.85366,-18.49626 37.58651,-25.89436 40.44786,-27.88053 26.81553,-18.61364 47.46515,-32.57603 50.49657,-34.14364 4.18396,-2.16361 5.6522,-1.72425 7.82876,2.34268 1.61228,3.01256 0.18384,4.57569 -23.54027,25.75991 -6.54477,5.84409 -15.51154,13.94409 -19.92615,18 -8.4779,7.78904 -22.5136,20.32516 -39.6401,35.40493 -5.68334,5.00413 -10.33334,9.50022 -10.33334,9.99131 0,0.49109 7.00633,7.13707 15.56962,14.76885 8.56329,7.63178 19.21329,17.22206 23.66667,21.31174 4.45337,4.08967 13.49705,12.16619 20.09705,17.94781 6.6,5.78163 12.3,10.84422 12.66666,11.25021 0.36667,0.40599 4.75785,4.2889 9.75818,8.62868 10.21947,8.86949 13.36263,13.59084 11.39207,17.11205 -1.63422,2.92017 -4.85711,2.90362 -9.38645,-0.0482 z m 1097.01277,-55.6963 c -1.1723,-4.67105 0.088,-6.06753 28.2346,-31.29668 13.4995,-12.1 27.9445,-25.13116 32.1,-28.95813 4.1555,-3.82696 13.0717,-11.62696 19.8136,-17.33333 6.742,-5.70637 12.292,-11.07789 12.3334,-11.93671 0.061,-1.27645 -20.6941,-20.67288 -45.278,-42.31315 -4.6981,-4.13552 -28.6905,-25.62183 -31.4058,-28.12536 -0.7954,-0.73333 -3.5,-3.13923 -6.0103,-5.34645 -10.1595,-8.93306 -13.1614,-15.64948 -7.7607,-17.36361 2.9001,-0.92044 4.9369,0.37145 57.3758,36.39124 11.4653,7.87535 28.2653,19.38883 37.3334,25.58551 9.0681,6.19668 18.2874,12.5021 20.4874,14.01204 13.1666,9.0367 19.3334,14.36993 19.3334,16.72014 0,3.32113 -2.5765,5.20456 -72.6667,53.11941 -6.6,4.51187 -14.7,10.08524 -18,12.38525 -28.3137,19.73393 -41.0087,27.82982 -43.6393,27.82982 -0.7727,0 -1.7856,-1.5165 -2.2508,-3.36999 z M 2076,1184.7073 c -30.4172,-5.8276 -56.1851,-23.3188 -74.637,-50.6633 -13.5414,-20.0674 -21.7496,-41.2985 -27.5956,-71.3773 -3.1907,-16.417 -3.5064,-20.99 -3.5901,-52 -0.091,-33.94831 0.528,-40.787 5.9784,-65.99998 4.5284,-20.94802 17.3939,-53.99373 27.2527,-70 15.1536,-24.6027 27.853,-41.68789 46.5748,-62.65986 27.3157,-30.59876 70.6213,-69.69179 101.2869,-91.43417 77.277,-54.79055 160.481,-76.0495 204.9274,-52.35978 10.5104,5.60194 16.7238,11.96484 21.2753,21.78713 9.6787,20.88678 6.6068,54.47253 -7.7328,84.5447 -28.8534,60.50981 -108.7083,121.66714 -231.6629,177.42033 -12.7955,5.8021 -29.9504,13.13356 -38.1218,16.29213 l -14.8572,5.74286 0.6826,20 c 0.4698,13.76524 1.4896,22.98094 3.2711,29.56244 7.911,29.224 27.3876,48.7515 54.2815,54.423 14.2016,2.9949 29.1463,2.2191 51.495,-2.6733 18.0391,-3.9489 46.4593,-15.9259 70.505,-29.7125 11.944,-6.8481 39.636,-25.8444 53.8393,-36.933 13.4884,-10.53038 48.6875,-38.82514 52.8888,-42.51458 2.6005,-2.28364 6.6998,-5.74706 9.1095,-7.69649 3.8655,-3.12704 4.5175,-4.61868 5.5373,-12.66667 4.7531,-37.51312 16.7363,-82.70871 32.291,-121.78891 3.6485,-9.16667 7.7452,-19.46788 9.1039,-22.89158 5.3732,-13.53994 33.5547,-69.56443 44.1528,-87.77509 1.9205,-3.3 4.6064,-8.1 5.9687,-10.66667 7.5632,-14.24947 34.1102,-56.89895 56.02,-90.00001 25.4253,-38.41208 73.941,-100.30344 115.4923,-147.33334 83.1537,-94.11756 176.9001,-178.05989 230.8969,-206.74951 27.2342,-14.4701 41.4649,-15.42917 53.6696,-3.61703 6.9207,6.69805 9.0372,14.95086 8.9844,35.0332 -0.1526,58.07978 -35.8546,136.01132 -108.9461,237.81139 -19.2275,26.7797 -50.1011,66.55553 -70.5209,90.85529 -22.6304,26.93045 -39.3625,46.58287 -47.8208,56.16737 -25.2529,28.61517 -47.4251,53.02899 -70,77.07729 -5.8667,6.24956 -16.0067,17.07615 -22.5334,24.05909 -6.5268,6.98295 -42.6745,43.66575 -80.3283,81.51733 l -68.4615,68.82107 -0.043,37.84561 c -0.047,41.02984 1.2129,53.15724 7.3432,70.70374 8.1426,23.3058 20.5318,34.2255 40.3025,35.5219 16.0483,1.0524 27.1488,-2.8777 43.9583,-15.5633 11.9135,-8.9908 63.0956,-60.32213 63.0956,-63.27965 0,-1.07535 -1.8442,-6.06111 -4.0983,-11.07947 -11.3924,-25.3633 -13.8201,-50.22644 -7.158,-73.30847 5.7941,-20.07479 17.847,-42.53624 34.8235,-64.89628 36.9495,-48.6669 93.4443,-95.29005 118.6138,-97.88777 23.0112,-2.37496 33.5539,16.6729 29.8118,53.86198 -0.7991,7.94177 -1.9868,16.53958 -2.6393,19.10624 -4.4699,17.58248 -8.3302,31.72574 -9.2802,34 -0.6127,1.46667 -3.6767,9.26667 -6.809,17.33334 -8.7882,22.63211 -22.398,51.61128 -36.6272,77.9898 l -7.5464,13.98979 4.4547,3.75684 c 10.8216,9.12637 19.5515,13.92677 27.0252,14.86055 15.257,1.90623 34.9244,-2.46441 55.8935,-12.4211 19.6607,-9.33543 19.1639,-8.71401 21.5146,-26.91055 4.1212,-31.89994 16.8858,-83.37236 29.4607,-118.79729 3.4593,-9.74544 11.452,-31.49414 13.7388,-37.38446 0.6584,-1.69597 2.2448,-5.78359 3.5254,-9.08359 1.2805,-3.3 3.4461,-8.54346 4.8123,-11.65213 1.3663,-3.10868 2.4841,-5.95786 2.4841,-6.33151 0,-0.85081 9.3632,-22.1352 15.4351,-35.08699 2.5107,-5.35551 4.5649,-10.08025 4.5649,-10.49942 0,-1.26166 25.045,-51.67587 30.4996,-61.39391 2.7894,-4.96983 7.4901,-13.53604 10.4459,-19.03605 26.0401,-48.45432 67.7921,-114.04788 99.7224,-156.66667 46.8781,-62.57035 94.9147,-110.0637 133.7462,-132.23357 21.3992,-12.21731 32.4117,-14.85379 41.6067,-9.96097 6.5437,3.48198 10.1892,10.71635 11.8085,23.43328 4.334,34.03713 2.0626,64.77958 -7.7913,105.44973 -3.4941,14.42132 -16.7164,55.93662 -19.9519,62.64486 -0.7074,1.46667 -3.7924,8.66667 -6.8555,16.00001 -31.9832,76.5697 -90.1695,171.53024 -153.1856,250.00001 -19.2199,23.93336 -43.0006,52.63326 -45.2967,54.66667 -0.414,0.36667 -2.7951,3.06667 -5.2913,6 -9.6593,11.35103 -22.8368,25.97264 -40.1982,44.60366 l -18.0747,19.39635 -2.592,15.33333 c -3.8601,22.83445 -3.6053,64.45672 0.4849,79.21381 6.5463,23.6186 18.2574,41.5414 34.2564,52.4267 6.8238,4.6427 21.3027,8.3595 32.5651,8.3595 12.2615,0 21.9588,-2.6414 32.6509,-8.8935 11.3653,-6.6457 35.5317,-25.142 49.4506,-37.8482 6.6,-6.0249 14.7247,-13.4227 18.0548,-16.4396 24.6832,-22.36182 48.7247,-44.46053 60.3613,-55.48375 2.7894,-2.64228 4.541,-6.59682 6.8408,-15.44337 13.2612,-51.01341 43.1092,-96.647 99.4098,-151.98419 68.2499,-67.08207 133.7618,-107.01912 198.1625,-120.80304 19.5773,-4.1902 52.8867,-4.47179 65.1708,-0.55094 21.2213,6.77339 32.051,16.11987 38.7542,33.44657 3.8791,10.02668 3.597,38.67902 -0.5234,53.1787 -8.4445,29.71539 -24.3961,55.48834 -50.8974,82.23477 -11.9787,12.08946 -17.3372,16.83686 -34.6672,30.71394 -14.981,11.99605 -34.9248,25.71739 -55.3328,38.06888 -40.8143,24.70189 -101.1848,54.42276 -146.6667,72.20514 l -6.6667,2.60652 -0.434,7.82936 c -0.7302,13.1704 2.2387,35.78651 6.2743,47.79571 8.0868,24.0653 25.2445,40.9995 48.1597,47.5326 3.4538,0.9846 12.7901,1.6842 22,1.6484 45.6194,-0.1773 95.0169,-22.3896 159.3334,-71.6463 10.4538,-8.0061 52.0654,-41.84115 63.627,-51.73618 7.6805,-6.57335 31.7667,-35.43703 41.0359,-49.17521 2.1979,-3.25764 4.3745,-6.22299 4.8369,-6.58966 2.1307,-1.6896 11.5999,-17.96592 11.0087,-18.92248 -0.3662,-0.59263 -1.5928,-1.07752 -2.7256,-1.07752 -3.4968,0 -20.1305,-9.38292 -26.3697,-14.87493 -8.7734,-7.72257 -11.7726,-16.58049 -11.695,-34.53981 0.1,-23.11131 7.6876,-44.31598 27.722,-77.47178 21.5297,-35.63035 57.3181,-76.17 80.4569,-91.13842 16.6974,-10.8015 26.1694,-14.58951 36.5511,-14.61732 8.1277,-0.0218 9.4079,0.33663 11.8199,3.30892 4.4876,5.53014 2.7195,15.87712 -5.6483,33.05346 -3.8262,7.85393 -8.1189,15.92578 -9.5393,17.93744 -3.0166,4.27244 -2.3653,6.17481 1.8876,5.51307 108.8406,-16.93511 174.5438,-23.82474 191.9421,-20.12706 9.4243,2.00296 17.8548,13.49918 23.679,32.28976 4.8766,15.73373 6.7441,26.93672 6.7441,40.45812 0,11.99673 -0.3324,13.63502 -4.513,22.24616 -6.4272,13.23863 -17.5801,26.9029 -49.487,60.63037 -39.7576,42.02621 -76.1978,101.46659 -86.7478,141.50089 -5.716,21.69088 -0.5221,39.44588 13.4145,45.85628 6.5683,3.0212 20.7503,4.9598 29.3333,4.0097 24.0862,-2.6662 60.3686,-22.1875 108.6667,-58.4669 l 16.6666,-12.51926 0.362,25.0885 0.3619,25.08846 -6.174,5.6911 c -3.3958,3.1301 -14.3586,14.0192 -24.362,24.1981 -67.7361,68.9248 -115.3976,106.4876 -150.1879,118.3653 -7.6368,2.6073 -12.0215,3.1865 -24.1226,3.1865 -14.5543,0 -14.9523,-0.083 -25.0481,-5.2071 -21.9078,-11.1198 -35.6024,-33.795 -40.9032,-67.7267 -2.4479,-15.6698 -0.9723,-52.2327 2.6529,-65.7328 3.7348,-13.9086 7.8557,-26.68186 10.754,-33.33337 8.126,-18.6492 10.2857,-23.38096 13.4584,-29.48696 6.8027,-13.09225 13.6442,-25.23082 18.0765,-32.07234 2.456,-3.79094 4.4655,-7.26626 4.4655,-7.72294 0,-0.45667 0.6011,-1.55499 1.3358,-2.44071 0.7347,-0.88571 5.7178,-8.21039 11.0736,-16.27706 9.635,-14.512 18.7899,-27.62829 25.5925,-36.66667 10.2493,-13.61802 25.6458,-33.43975 30.3346,-39.05338 2.934,-3.51269 5.0172,-6.70395 4.6295,-7.0917 -0.3877,-0.38775 -3.9137,-0.10081 -7.8355,0.63764 -23.6053,4.44475 -102.5085,18.96742 -113.2419,20.84294 -7.028,1.22805 -13.4006,2.62994 -14.1614,3.11532 -0.7608,0.48538 -3.2487,4.59161 -5.5286,9.12495 -11.7845,23.43224 -36.509,59.85755 -57.4035,84.56964 -12.3844,14.64712 -58.523,59.7355 -62.0268,60.61484 -1.8278,0.4588 -5.8984,3.9616 -9.0458,7.7841 -12.9707,15.7527 -24.3782,28.1345 -49.0559,53.2459 -73.3742,74.6636 -122.4117,107.3831 -181.3333,120.9916 -15.6642,3.6179 -49.2837,4.9787 -65.2655,2.6419 -46.0265,-6.73 -82.0171,-40.2385 -99.3825,-92.5284 -6.9331,-20.8768 -9.7447,-37.274 -12.0998,-70.5665 -0.4541,-6.4191 -1.3102,-11.3717 -1.9025,-11.0056 -0.5922,0.366 -6.0189,6.818 -12.0592,14.3378 -54.5577,67.9202 -107.2907,118.0562 -147.9916,140.7035 -38.7885,21.5832 -68.0861,25.3823 -97.2989,12.6169 -24.4305,-10.6756 -47.5695,-43.1777 -59.12,-83.0428 -7.0712,-24.4055 -12.8748,-62.0816 -12.8784,-83.6053 -9e-4,-5.3167 -0.3224,-9.6667 -0.7145,-9.6667 -0.3921,0 -5.3421,2.6229 -11,5.8286 -28.8145,16.3262 -54.202,26.9893 -73.6204,30.9218 -14.367,2.9096 -40.8182,1.9422 -56.5022,-2.0662 -5.7762,-1.4763 -11.1762,-2.6608 -12,-2.6322 -0.8238,0.029 -3.4837,2.751 -5.9109,6.0498 -22.6921,30.8404 -77.2934,89.5026 -102.4082,110.0246 -20.4844,16.7384 -45.5697,29.6914 -65.8128,33.983 -15.1067,3.2027 -42.999,2.1667 -52.6993,-1.9575 -31.6441,-13.4537 -51.7573,-39.4897 -66.0389,-85.4852 -7.7728,-25.0335 -13.2944,-59.5024 -13.2944,-82.9918 0,-6.4212 -0.5624,-11.6749 -1.2498,-11.6749 -0.6874,0 -4.6613,4.05 -8.8308,9 -30.3035,35.9758 -69.6254,75.237 -106.5861,106.4213 -44.3634,37.4302 -87.8372,59.3653 -132,66.6017 -14.4363,2.3655 -47.0279,2.3752 -59.3333,0.018 z m 31.3333,-261.09768 c 48.4853,-20.81505 88.9613,-48.0341 124.5004,-83.72313 38.5901,-38.7529 62.995,-84.97348 52.6587,-99.73061 -7.5193,-10.73529 -24.2485,-6.83635 -58.4924,13.63229 -62.3559,37.2721 -111.6692,96.14078 -127.9667,152.76275 -4.991,17.34024 -5.8343,23.55432 -3.0333,22.35287 0.9167,-0.39319 6.4667,-2.77557 12.3333,-5.29417 z m 1210.7406,-2.2605 c 71.9662,-31.23626 134.8117,-84.85492 164.5928,-140.4276 13.2386,-24.70379 13.8767,-40.71164 1.8236,-45.74777 -4.1223,-1.7224 -5.6267,-1.70763 -12.9115,0.12673 -26.2055,6.59878 -68.1834,34.35891 -101.364,67.03231 -28.1312,27.70123 -50.7607,60.51766 -61.3893,89.02435 -3.1278,8.38916 -10.1588,33.86827 -10.1588,36.81388 0,1.66025 -0.7104,1.90995 19.4072,-6.8219 z M 2540.5848,806.52528 c 14.8327,-15.37129 38.8815,-42.76324 54.3288,-61.88112 4.1377,-5.12093 13.4161,-16.51078 20.6186,-25.31078 12.0502,-14.72289 52.411,-64.95232 60.6614,-75.49368 8.0222,-10.24971 26.8137,-34.07408 29.3203,-37.173 4.1072,-5.07767 33.2794,-43.44498 37.8372,-49.7635 3.4142,-4.73318 17.6582,-24.17299 26.0629,-35.56984 3.58,-4.85456 43.015,-63.90643 46.0287,-68.92568 1.4065,-2.34246 5.5573,-9.24194 9.224,-15.33219 10.0994,-16.77491 10.6887,-17.83728 19.8254,-35.74213 11.567,-22.66728 16.8523,-36.3779 17.7567,-46.06267 1.4837,-15.88861 -4.1549,-17.74796 -20.6191,-6.7992 -9.7933,6.51263 -34.3922,28.22378 -44.963,39.68475 -32.1999,34.91134 -60.4883,69.07722 -87.0854,105.17935 -12.976,17.61323 -26.2792,36.21192 -37.5813,52.54097 -6.9667,10.06528 -15.223,21.85997 -18.3475,26.21042 -20.6473,28.74908 -78.0547,114.0969 -95.0064,141.2464 -14.1218,22.61729 -34.8818,63.60785 -43.9972,86.87268 -8.6687,22.12465 -15.8662,43.46557 -14.9638,44.36802 0.9811,0.98106 23.0374,-19.53778 40.8997,-38.0488 z m 454.3154,-7.63697 c 28.5729,-31.22543 27.8793,-30.39111 52.834,-63.55493 15.0301,-19.97449 24.6083,-33.37103 28.9367,-40.4722 0.7357,-1.20696 5.8683,-9.09447 11.4057,-17.52781 9.4719,-14.42537 22.6699,-36.32374 33.7509,-56 6.1961,-11.0022 29.8737,-58.31215 34.0326,-68 13.7763,-32.09117 20.1657,-54.2923 20.1202,-69.91155 -0.024,-8.10267 -2.0882,-12.63543 -7.0063,-15.38149 -3.4699,-1.93746 -4.1072,-1.80592 -12.6442,2.60969 -27.4253,14.18535 -68.974,72.52732 -110.159,154.68335 -22.0213,43.92836 -33.8465,72.40682 -48.7608,117.43004 -10.461,31.57961 -20.5469,72.04992 -17.8917,71.79156 0.6316,-0.0615 7.5535,-7.11145 15.3819,-15.66666 z"
       id="path1" />
  </g>
</svg>
