<?xml version="1.0" encoding="UTF-8" standalone="no"?>
<!-- Created with Inkscape (http://www.inkscape.org/) -->

<svg
   version="1.1"
   id="svg1"
   width="128"
   height="128"
   viewBox="0 0 128 128"
   sodipodi:docname="logoicon.png"
   inkscape:export-filename="logoicon.svg"
   inkscape:export-xdpi="96"
   inkscape:export-ydpi="96"
   xmlns:inkscape="http://www.inkscape.org/namespaces/inkscape"
   xmlns:sodipodi="http://sodipodi.sourceforge.net/DTD/sodipodi-0.dtd"
   xmlns="http://www.w3.org/2000/svg"
   xmlns:svg="http://www.w3.org/2000/svg">
  <defs
     id="defs1" />
  <sodipodi:namedview
     id="namedview1"
     pagecolor="#ffffff"
     bordercolor="#000000"
     borderopacity="0.25"
     inkscape:showpageshadow="2"
     inkscape:pageopacity="0.0"
     inkscape:pagecheckerboard="0"
     inkscape:deskcolor="#d1d1d1">
    <inkscape:page
       x="0"
       y="0"
       width="128"
       height="128"
       id="page2"
       margin="0"
       bleed="0" />
  </sodipodi:namedview>
  <g
     inkscape:groupmode="layer"
     inkscape:label="Image"
     id="g1">
    <path
       style="fill:#000080"
       d="M 0,64 V 0 h 64 64 v 64 64 H 64 0 Z m 56.726338,60.64983 c 5.962922,-1.26357 10.4638,-5.77838 12.993664,-13.0339 1.731947,-4.96713 2.96626,-13.090298 3.393938,-22.33593 0.101766,-2.2 0.267566,-5.210553 0.368445,-6.690118 l 0.183417,-2.690118 1.198983,2.863582 c 1.646954,3.933488 7.055545,14.53335 9.449524,18.519364 5.069431,8.44068 10.618494,13.15376 16.784211,14.25564 9.53323,1.70368 18.20549,-7.239 20.67187,-21.316454 0.73869,-4.21625 0.74516,-12.751858 0.0133,-17.581896 -1.12851,-7.448007 -3.75951,-15.638226 -7.28359,-22.67357 -0.86881,-1.734463 -1.53476,-3.186415 -1.47989,-3.22656 0.0549,-0.04014 0.98157,-0.600412 2.05933,-1.245039 4.08592,-2.44385 8.22426,-7.615951 9.98319,-12.477001 1.39902,-3.866374 1.76581,-6.391979 1.58394,-10.906512 C 126.51585,22.863359 126.32578,21.7505 125.46627,19.2 123.06792,12.083116 118.87612,7.1065827 112.8,4.1625201 109.17688,2.4070114 106.96398,1.92 102.61033,1.92 c -3.079357,0 -4.141281,0.1383869 -6.353811,0.8280103 -7.218365,2.2498917 -12.758247,7.4401577 -15.6204,14.6346117 -4.374077,10.994906 -1.177281,23.635066 7.775837,30.745727 1.018576,0.808964 2.417056,1.759135 3.107732,2.111492 1.507799,0.769221 1.51959,0.806243 2.853805,8.960159 1.305516,7.978524 1.678814,11.750728 1.725864,17.44 0.07652,9.252664 -1.453364,12.594149 -5.124298,11.192207 C 85.10608,85.590823 77.680836,65.780966 75.085369,45.44 c -0.449767,-3.524874 -0.310092,-8.317739 0.455018,-15.613661 0.208427,-1.987513 0.309736,-3.682883 0.225131,-3.767487 -0.0846,-0.08461 -0.786457,0.209192 -1.559672,0.652883 -0.773215,0.443691 -2.203144,1.033421 -3.17762,1.310512 l -1.771773,0.503803 0.129709,6.030476 C 69.618353,45.351608 68.295501,57.92 66.927103,57.92 65.298295,57.92 64.32,50.026941 64.32,36.885427 V 28.600992 L 62.64,28.17727 c -1.673622,-0.422113 -3.886123,-1.453823 -5.307822,-2.475087 l -0.747821,-0.537191 0.267821,4.137504 c 0.368793,5.697373 0.262672,23.109932 -0.18221,29.897504 -1.426307,21.761194 -4.659083,40.788747 -7.857384,46.24717 -1.288116,2.19839 -2.331183,3.03283 -3.791074,3.03283 -1.110722,0 -1.482226,-0.19935 -2.657643,-1.42608 -2.64051,-2.75579 -4.817543,-8.771475 -5.612406,-15.508483 C 36.53067,89.674087 36.462587,86.236294 36.57668,82.72 c 0.352135,-10.852616 2.097129,-21.024384 6.026353,-35.128289 1.230084,-4.41537 1.427623,-4.86293 2.984883,-6.762761 2.221834,-2.710601 3.180335,-4.404265 4.183147,-7.39159 C 51.478637,28.350585 51.102615,23.069086 48.677679,18.08 45.755616,12.068117 40.488053,7.9985622 33.318323,6.213839 27.904102,4.8661054 23.406146,5.3899161 18.097274,7.98641 12.079463,10.929636 7.9512665,15.854606 6.3921423,21.950723 3.9491544,31.502714 8.9634464,41.816834 18.16,46.156553 c 1.1,0.519074 2,0.984152 2,1.033507 0,0.04935 -0.737698,1.799782 -1.639329,3.889838 C 17.61904,53.169954 16.047778,57.4 15.028979,60.48 12.007007,69.615919 10.895878,75.926219 10.887534,84 c -0.01258,12.173899 3.338781,20.86951 10.817734,28.06824 4.690789,4.51503 10.233495,7.7561 17.654722,10.32349 7.232918,2.50225 12.798862,3.22597 17.366348,2.2581 z M 24.64,35.04 20.328892,30.72 24.64,26.4 c 4.015851,-4.024134 4.80413,-4.69454 4.797354,-4.08 -0.0015,0.132 -1.369456,2.006461 -3.04,4.165468 C 24.726809,28.644476 23.36,30.532963 23.36,30.682107 c 0,0.149143 1.368,2.045713 3.04,4.2146 2.908243,3.772518 3.340906,4.463293 2.795554,4.463293 -0.134445,0 -2.184445,-1.944 -4.555554,-4.32 z m 76.69095,-1.037555 c -0.10459,-0.169237 1.23695,-2.160148 2.98121,-4.424247 1.88041,-2.440817 3.06547,-4.251215 2.91121,-4.447371 -4.1606,-5.290276 -6.09858,-8.012425 -5.77991,-8.118648 0.41888,-0.139626 8.63654,7.879277 8.63654,8.42765 0,0.537838 -8.54192,8.897746 -8.74905,8.562616 z"
       id="path1" />
  </g>
</svg>
